<?xml version="1.0" encoding="UTF-8"?>
<svg width="528px" height="528px" viewBox="0 0 528 528" version="1.1" xmlns="http://www.w3.org/2000/svg" xmlns:xlink="http://www.w3.org/1999/xlink">
    <!-- Generator: Sketch 55.2 (78181) - https://sketchapp.com -->
    <title>Broken Image no Image NFT</title>
    <desc>Created with Sketch.</desc>
    <g id="Broken-Image-no-Image-NFT" stroke="none" stroke-width="1" fill="none" fill-rule="evenodd">
        <rect id="Rectangle" fill="#E6ECF5" x="0" y="0" width="528" height="528"></rect>
        <g id="visibility_off-24px" transform="translate(135.000000, 135.000000)">
            <path d="M0,0 L258,0 L258,258 L0,258 L0,0 Z M0,0 L258,0 L258,258 L0,258 L0,0 Z M0,0 L258,0 L258,258 L0,258 L0,0 Z M0,0 L258,0 L258,258 L0,258 L0,0 Z" id="Shape"></path>
            <path d="M129.053661,74.9473684 C158.674397,74.9473684 182.714416,98.9978947 182.714416,128.631579 C182.714416,135.610526 181.319236,142.16 178.850841,148.28 L210.188722,179.631579 C226.39427,166.103158 239.16553,148.602105 247,128.631579 C228.433379,81.4968421 182.607094,48.1052632 128.946339,48.1052632 C113.921328,48.1052632 99.5402456,50.7894737 86.2323784,55.6210526 L109.413824,78.8126316 C115.531151,76.3431579 122.077763,74.9473684 129.053661,74.9473684 Z M21.732151,45.6357895 L46.2014552,70.1157895 L51.1382447,75.0547368 C33.322874,88.9052632 19.3710778,107.372632 11,128.631579 C29.5666212,175.766316 75.3929059,209.157895 129.053661,209.157895 C145.688495,209.157895 161.572078,205.936842 176.060482,200.138947 L180.567985,204.648421 L212.013188,236 L225.64302,222.364211 L35.3619827,32 L21.732151,45.6357895 Z M81.0809459,105.010526 L97.7157799,121.652632 C97.1791724,123.907368 96.8572078,126.269474 96.8572078,128.631579 C96.8572078,146.454737 111.23829,160.842105 129.053661,160.842105 C131.414734,160.842105 133.775807,160.52 136.029559,159.983158 L152.664393,176.625263 C145.473852,180.168421 137.53206,182.315789 129.053661,182.315789 C99.4329241,182.315789 75.3929059,158.265263 75.3929059,128.631579 C75.3929059,120.149474 77.5393361,112.204211 81.0809459,105.010526 L81.0809459,105.010526 Z M127.336517,96.6357895 L161.142792,130.456842 L161.357435,128.738947 C161.357435,110.915789 146.976353,96.5284211 129.160982,96.5284211 L127.336517,96.6357895 Z" id="Shape" fill="#99A7C2" fill-rule="nonzero"></path>
        </g>
    </g>
</svg>